<svg width="48" height="48" viewBox="0 0 48 48" fill="none" xmlns="http://www.w3.org/2000/svg">
<path d="M24 48C37.2548 48 48 37.2548 48 24C48 10.7452 37.2548 0 24 0C10.7452 0 0 10.7452 0 24C0 37.2548 10.7452 48 24 48Z" fill="white"/>
<path fill-rule="evenodd" clip-rule="evenodd" d="M33.2286 21.8554C32.4459 21.0726 32.4459 19.8036 33.2286 19.0208C34.0114 18.2381 35.2804 18.2381 36.0632 19.0208C36.8459 19.8036 36.8459 21.0726 36.0632 21.8554C35.2804 22.6381 34.0114 22.6381 33.2286 21.8554ZM26.4966 28.5874C25.9096 28.0003 25.9096 27.0485 26.4966 26.4615C27.0837 25.8744 28.0355 25.8744 28.6225 26.4615C29.2096 27.0485 29.2096 28.0003 28.6225 28.5874C28.0355 29.1744 27.0837 29.1744 26.4966 28.5874ZM37.1261 25.0442C36.5391 24.4572 36.5391 23.5054 37.1261 22.9183C37.7131 22.3313 38.6649 22.3313 39.252 22.9183C39.839 23.5054 39.839 24.4572 39.252 25.0442C38.6649 25.6313 37.7131 25.6313 37.1261 25.0442ZM33.583 28.5874C32.9959 28.0003 32.9959 27.0485 33.583 26.4615C34.17 25.8744 35.1218 25.8744 35.7088 26.4615C36.2959 27.0485 36.2959 28.0003 35.7088 28.5874C35.1218 29.1744 34.17 29.1744 33.583 28.5874ZM41.0236 28.233C40.6322 27.8417 40.6322 27.2071 41.0236 26.8158C41.4149 26.4244 42.0495 26.4244 42.4408 26.8158C42.8322 27.2071 42.8322 27.8417 42.4408 28.233C42.0495 28.6244 41.4149 28.6244 41.0236 28.233ZM37.4804 31.7761C37.0891 31.3848 37.0891 30.7502 37.4804 30.3589C37.8718 29.9676 38.5063 29.9676 38.8977 30.3589C39.289 30.7502 39.289 31.3848 38.8977 31.7761C38.5063 32.1675 37.8718 32.1675 37.4804 31.7761ZM29.6855 25.3985C28.9028 24.6158 28.9028 23.3467 29.6855 22.564C30.4682 21.7812 31.7373 21.7812 32.52 22.564C33.3027 23.3467 33.3027 24.6158 32.52 25.3985C31.7373 26.1813 30.4682 26.1813 29.6855 25.3985ZM29.6855 18.3122C28.9028 17.5295 28.9028 16.2604 29.6855 15.4776C30.4682 14.6949 31.7373 14.6949 32.52 15.4776C33.3027 16.2604 33.3027 17.5295 32.52 18.3122C31.7373 19.0949 30.4682 19.0949 29.6855 18.3122ZM26.1423 21.8554C25.3596 21.0726 25.3596 19.8036 26.1423 19.0208C26.9251 18.2381 28.1941 18.2381 28.9769 19.0208C29.7596 19.8036 29.7596 21.0726 28.9769 21.8554C28.1941 22.6381 26.9251 22.6381 26.1423 21.8554ZM19.0231 21.8554C18.2404 21.0726 18.2404 19.8036 19.0231 19.0208C19.8058 18.2381 21.0749 18.2381 21.8576 19.0208C22.6403 19.8036 22.6403 21.0726 21.8576 21.8554C21.0749 22.6381 19.8058 22.6381 19.0231 21.8554ZM12.2911 28.5874C11.7041 28.0003 11.7041 27.0485 12.2911 26.4615C12.8782 25.8744 13.83 25.8744 14.417 26.4615C15.004 27.0485 15.004 28.0003 14.417 28.5874C13.83 29.1744 12.8782 29.1744 12.2911 28.5874ZM22.9206 25.0442C22.3335 24.4572 22.3335 23.5054 22.9206 22.9183C23.5076 22.3313 24.4594 22.3313 25.0465 22.9183C25.6335 23.5054 25.6335 24.4572 25.0465 25.0442C24.4594 25.6313 23.5076 25.6313 22.9206 25.0442ZM19.3774 28.5874C18.7904 28.0003 18.7904 27.0485 19.3774 26.4615C19.9645 25.8744 20.9163 25.8744 21.5033 26.4615C22.0903 27.0485 22.0903 28.0003 21.5033 28.5874C20.9163 29.1744 19.9645 29.1744 19.3774 28.5874ZM5.55914 28.233C5.16779 27.8417 5.16779 27.2071 5.55914 26.8158C5.95049 26.4244 6.58504 26.4244 6.97639 26.8158C7.36779 27.2071 7.36779 27.8417 6.97639 28.233C6.58504 28.6244 5.95049 28.6244 5.55914 28.233ZM9.10229 31.7761C8.71094 31.3848 8.71094 30.7502 9.10229 30.3589C9.49364 29.9676 10.1282 29.9676 10.5195 30.3589C10.9109 30.7502 10.9109 31.3848 10.5195 31.7761C10.1282 32.1675 9.49364 32.1675 9.10229 31.7761ZM23.2749 31.7761C22.8835 31.3848 22.8835 30.7502 23.2749 30.3589C23.6662 29.9676 24.3008 29.9676 24.6921 30.3589C25.0835 30.7502 25.0835 31.3848 24.6921 31.7761C24.3008 32.1675 23.6662 32.1675 23.2749 31.7761ZM8.74799 25.0442C8.16094 24.4572 8.16094 23.5054 8.74799 22.9183C9.33504 22.3313 10.2868 22.3313 10.8739 22.9183C11.4609 23.5054 11.4609 24.4572 10.8739 25.0442C10.2868 25.6313 9.33504 25.6313 8.74799 25.0442ZM15.4799 25.3985C14.6972 24.6158 14.6972 23.3467 15.4799 22.564C16.2627 21.7812 17.5317 21.7812 18.3145 22.564C19.0972 23.3467 19.0972 24.6158 18.3145 25.3985C17.5317 26.1813 16.2627 26.1813 15.4799 25.3985ZM15.4799 18.3122C14.6972 17.5295 14.6972 16.2604 15.4799 15.4776C16.2627 14.6949 17.5317 14.6949 18.3145 15.4776C19.0972 16.2604 19.0972 17.5295 18.3145 18.3122C17.5317 19.0949 16.2627 19.0949 15.4799 18.3122ZM11.9368 21.8554C11.1541 21.0726 11.1541 19.8036 11.9368 19.0208C12.7195 18.2381 13.9886 18.2381 14.7713 19.0208C15.554 19.8036 15.554 21.0726 14.7713 21.8554C13.9886 22.6381 12.7195 22.6381 11.9368 21.8554Z" fill="#1D222A"/>
</svg>
