<svg width="17" height="27" viewBox="0 0 17 27" fill="none" xmlns="http://www.w3.org/2000/svg">
<path d="M8.68032 0.3396L8.49878 0.942465V18.4362L8.68032 18.6132L16.992 13.8133L8.68032 0.3396Z" fill="#8247E5"/>
<path d="M8.68031 0.3396L0.368652 13.8133L8.68031 18.6133V10.1224V0.3396Z" fill="#B591F0"/>
<path d="M8.68019 20.1508L8.57788 20.2727V26.5043L8.68019 26.7963L16.9968 15.3533L8.68019 20.1508Z" fill="#8247E5"/>
<path d="M8.68031 26.7961V20.1507L0.368652 15.3531L8.68031 26.7961Z" fill="#B591F0"/>
<path d="M8.68018 18.6132L16.9917 13.8134L8.68018 10.1224V18.6132Z" fill="#3C1281"/>
<path d="M0.368652 13.8134L8.68016 18.6132V10.1224L0.368652 13.8134Z" fill="#8247E5"/>
<g style="mix-blend-mode:color">
<path fill-rule="evenodd" clip-rule="evenodd" d="M8.68025 0.339695L8.68031 0.3396V0.33979L16.9919 13.8133L8.68031 18.6131V18.6133L8.6802 18.6132L8.68018 18.6132L8.68015 18.6132L7.80297 18.1066L0.368652 13.8133L0.368709 13.8133L0.368652 13.8133L8.68009 0.339971L8.6802 0.3396L8.68025 0.339695ZM8.6799 26.7955L0.368652 15.3531L8.68025 20.1507L16.9967 15.3532L8.68031 26.7959V26.7961L8.68025 26.796L8.68013 26.7962L8.6799 26.7955Z" fill="#121619"/>
</g>
</svg>
