<svg width="48" height="48" viewBox="0 0 48 48" fill="none" xmlns="http://www.w3.org/2000/svg">
<path d="M24 48C37.2548 48 48 37.2548 48 24C48 10.7452 37.2548 0 24 0C10.7452 0 0 10.7452 0 24C0 37.2548 10.7452 48 24 48Z" fill="#F2F4F8"/>
<path d="M38.8801 8.45776L25.9709 18.0249L28.3691 12.3867L38.8801 8.45776Z" fill="#E17726"/>
<path d="M9.13281 8.45776L21.9144 18.1142L19.6311 12.3867L9.13281 8.45776Z" fill="#E27625"/>
<path d="M34.2368 30.6404L30.8054 35.8959L38.153 37.9241L40.245 30.7552L34.2368 30.6404Z" fill="#E27625"/>
<path d="M7.76782 30.7552L9.84707 37.9241L17.1946 35.8959L13.776 30.6404L7.76782 30.7552Z" fill="#E27625"/>
<path d="M16.7993 21.7625L14.7456 24.8495L22.0293 25.1812L21.7742 17.3362L16.7993 21.7625Z" fill="#E27625"/>
<path d="M31.2137 21.7625L26.1495 17.2468L25.9709 25.1811L33.2547 24.8494L31.2137 21.7625Z" fill="#E27625"/>
<path d="M17.1946 35.8961L21.5827 33.7658L17.8068 30.8064L17.1946 35.8961Z" fill="#E27625"/>
<path d="M26.4172 33.7658L30.8053 35.8961L30.193 30.8064L26.4172 33.7658Z" fill="#E27625"/>
<path d="M30.8053 35.8962L26.4172 33.7659L26.7616 36.6233L26.7234 37.8223L30.8053 35.8962Z" fill="#D5BFB2"/>
<path d="M17.1946 35.8962L21.2765 37.8223L21.251 36.6233L21.5827 33.7659L17.1946 35.8962Z" fill="#D5BFB2"/>
<path d="M21.3531 28.9184L17.7048 27.8469L20.2815 26.6606L21.3531 28.9184Z" fill="#233447"/>
<path d="M26.647 28.9184L27.7185 26.6606L30.3207 27.8469L26.647 28.9184Z" fill="#233447"/>
<path d="M17.1945 35.8959L17.8323 30.6404L13.7759 30.7552L17.1945 35.8959Z" fill="#CC6228"/>
<path d="M30.1675 30.6404L30.8053 35.8959L34.2367 30.7552L30.1675 30.6404Z" fill="#CC6228"/>
<path d="M33.2547 24.8494L25.9709 25.181L26.647 28.9186L27.7185 26.6608L30.3208 27.8471L33.2547 24.8494Z" fill="#CC6228"/>
<path d="M17.705 27.8471L20.2818 26.6608L21.3533 28.9186L22.0293 25.181L14.7456 24.8494L17.705 27.8471Z" fill="#CC6228"/>
<path d="M14.7456 24.8494L17.8071 30.8065L17.705 27.8471L14.7456 24.8494Z" fill="#E27525"/>
<path d="M30.3207 27.8471L30.1931 30.8065L33.2546 24.8494L30.3207 27.8471Z" fill="#E27525"/>
<path d="M22.0291 25.1809L21.353 28.9185L22.2077 33.3321L22.3863 27.5153L22.0291 25.1809Z" fill="#E27525"/>
<path d="M25.9709 25.1809L25.6265 27.5025L25.7923 33.3321L26.647 28.9185L25.9709 25.1809Z" fill="#E27525"/>
<path d="M26.6469 28.9187L25.7922 33.3323L26.4173 33.766L30.1931 30.8066L30.3206 27.8472L26.6469 28.9187Z" fill="#F5841F"/>
<path d="M17.7048 27.8472L17.8069 30.8066L21.5827 33.766L22.2077 33.3323L21.3531 28.9187L17.7048 27.8472Z" fill="#F5841F"/>
<path d="M26.7234 37.8221L26.7616 36.6231L26.4427 36.3424H21.5571L21.251 36.6231L21.2765 37.8221L17.1946 35.896L18.6232 37.0695L21.5189 39.0722H26.481L29.3766 37.0695L30.8053 35.896L26.7234 37.8221Z" fill="#C0AC9D"/>
<path d="M26.4174 33.7657L25.7924 33.332H22.2079L21.5829 33.7657L21.2512 36.6231L21.5574 36.3424H26.443L26.7619 36.6231L26.4174 33.7657Z" fill="#161616"/>
<path d="M39.4157 18.6499L40.4999 13.3689L38.8799 8.45776L26.4172 17.706L31.2135 21.7624L37.9742 23.7396L39.4667 21.992L38.8161 21.52L39.8621 20.5761L39.0713 19.951L40.1045 19.1729L39.4157 18.6499Z" fill="#763E1A"/>
<path d="M7.5 13.3689L8.597 18.6499L7.89545 19.1729L8.9287 19.951L8.1378 20.5761L9.1838 21.52L8.53325 21.992L10.0257 23.7396L16.7992 21.7624L21.5828 17.706L9.1328 8.45776L7.5 13.3689Z" fill="#763E1A"/>
<path d="M37.9744 23.7397L31.2136 21.7625L33.2546 24.8495L30.1931 30.8065L34.2368 30.7555H40.2449L37.9744 23.7397Z" fill="#F5841F"/>
<path d="M16.7992 21.7625L10.0257 23.7397L7.76782 30.7555H13.776L17.8069 30.8065L14.7454 24.8495L16.7992 21.7625Z" fill="#F5841F"/>
<path d="M25.9709 25.1809L26.4173 17.7058L28.369 12.3865H19.6311L21.5828 17.7058L22.0293 25.1809L22.1951 27.528L22.2078 33.332H25.7923L25.8051 27.528L25.9709 25.1809Z" fill="#F5841F"/>
</svg>
