<svg width="48" height="48" viewBox="0 0 48 48" fill="none" xmlns="http://www.w3.org/2000/svg">
<g clip-path="url(#clip0_68_1410)">
<path d="M24.0024 48.0048C37.2586 48.0048 48.0048 37.2586 48.0048 24.0024C48.0048 10.7462 37.2586 0 24.0024 0C10.7462 0 0 10.7462 0 24.0024C0 37.2586 10.7462 48.0048 24.0024 48.0048Z" fill="#3375BB"/>
<path d="M24.0024 11.4461L24.6589 10.5916C24.4699 10.4464 24.2383 10.3677 24 10.3677C23.7616 10.3677 23.53 10.4464 23.341 10.5916L24.0024 11.4461ZM35.2891 14.7626H36.3656C36.3676 14.6198 36.3412 14.478 36.288 14.3454C36.2348 14.2129 36.1559 14.0922 36.0558 13.9903C35.9557 13.8884 35.8364 13.8074 35.7048 13.7518C35.5732 13.6963 35.4319 13.6674 35.2891 13.6667V14.7626ZM24.0024 37.8188L23.4038 38.7167C23.5802 38.8348 23.7877 38.8979 24 38.8979C24.2122 38.8979 24.4197 38.8348 24.5962 38.7167L24.0024 37.8188ZM12.7253 14.7626V13.6812C12.5825 13.6819 12.4412 13.7108 12.3096 13.7663C12.178 13.8218 12.0587 13.9029 11.9586 14.0048C11.8585 14.1067 11.7796 14.2274 11.7264 14.3599C11.6732 14.4925 11.6468 14.6343 11.6488 14.7771L12.7253 14.7626ZM23.3458 12.2957C28.2313 16.0805 33.8264 15.8391 35.2939 15.8391V13.6812C33.7733 13.6812 28.9023 13.8743 24.6734 10.5916L23.3458 12.2957ZM34.2174 14.7433C34.1353 19.7446 33.9229 23.2735 33.5174 25.8852C33.1119 28.4969 32.5519 30.0224 31.8133 31.1134C31.0747 32.2044 30.1285 32.9141 28.743 33.7396C27.3575 34.5651 25.5858 35.4823 23.4038 36.9257L24.6203 38.7167C26.6865 37.3409 28.4051 36.4623 29.8678 35.5885C31.3417 34.7858 32.6208 33.6683 33.614 32.3154C34.5795 30.8672 35.2408 28.9362 35.6657 26.2135C36.0905 23.4907 36.3077 19.8267 36.3898 14.7771L34.2174 14.7433ZM24.6203 36.9257C22.4527 35.4775 20.6859 34.5796 19.31 33.7444C17.9342 32.9092 16.988 32.243 16.2446 31.1134C15.5011 29.9838 14.8977 28.4824 14.4825 25.8852C14.0673 23.288 13.8839 19.7446 13.8018 14.7433L11.6488 14.7771C11.7308 19.8267 11.9529 23.5004 12.3729 26.2135C12.7929 28.9265 13.4349 30.8575 14.4197 32.3154C15.4082 33.6691 16.6843 34.7869 18.1562 35.5885C19.6045 36.4623 21.3376 37.3409 23.4038 38.7167L24.6203 36.9257ZM12.7253 15.8391C14.1735 15.8391 19.7735 16.0805 24.6589 12.2957L23.341 10.5916C19.1024 13.8743 14.2315 13.6812 12.7205 13.6812L12.7253 15.8391Z" fill="white"/>
</g>
<defs>
<clipPath id="clip0_68_1410">
<rect width="48" height="48" fill="white"/>
</clipPath>
</defs>
</svg>
