<svg width="48" height="48" viewBox="0 0 48 48" fill="none" xmlns="http://www.w3.org/2000/svg">
<path d="M48 24C48 10.7451 37.2549 0 24 0C10.7451 0 0 10.7451 0 24C0 37.2549 10.7451 48 24 48C37.2549 48 48 37.2549 48 24Z" fill="#3389FB"/>
<path d="M14.8463 17.7122C19.9018 12.7626 28.0983 12.7626 33.1537 17.7122L33.7621 18.3079C34.0149 18.5554 34.0149 18.9567 33.7621 19.2042L31.6808 21.2419C31.5544 21.3657 31.3495 21.3657 31.2231 21.2419L30.3859 20.4222C26.8591 16.9692 21.141 16.9692 17.6142 20.4222L16.7176 21.3001C16.5912 21.4238 16.3862 21.4238 16.2598 21.3001L14.1785 19.2623C13.9257 19.0148 13.9257 18.6136 14.1785 18.3661L14.8463 17.7122ZM37.458 21.9266L39.3104 23.7402C39.5632 23.9877 39.5632 24.389 39.3104 24.6364L30.958 32.8144C30.7052 33.0618 30.2953 33.0618 30.0425 32.8144L24.1145 27.0103C24.0513 26.9484 23.9489 26.9484 23.8857 27.0103L17.9576 32.8144C17.7049 33.0618 17.2951 33.0618 17.0423 32.8144L8.6896 24.6363C8.4368 24.3889 8.4368 23.9876 8.6896 23.7401L10.542 21.9265C10.7948 21.679 11.2046 21.679 11.4573 21.9265L17.3855 27.7307C17.4487 27.7925 17.5511 27.7925 17.6143 27.7307L23.5422 21.9265C23.795 21.679 24.2048 21.679 24.4576 21.9265L30.3857 27.7307C30.4489 27.7925 30.5514 27.7925 30.6146 27.7307L36.5427 21.9266C36.7955 21.6791 37.2052 21.6791 37.458 21.9266Z" fill="white"/>
</svg>
